<svg xmlns="http://www.w3.org/2000/svg" viewBox="0 0 64 64">
  <defs>
    <linearGradient id="rust3a" x1="0%" y1="0%" x2="0%" y2="100%">
      <stop offset="0%" stop-color="#D2691E"/>
      <stop offset="100%" stop-color="#6B3E1F"/>
    </linearGradient>
    <linearGradient id="drip3a" x1="0%" y1="0%" x2="0%" y2="100%">
      <stop offset="0%" stop-color="#6B3E1F"/>
      <stop offset="100%" stop-color="#3D2314"/>
    </linearGradient>
  </defs>
  <path fill="url(#rust3a)" d="M28 2 L36 2 L38 12 L48 8 L52 16 L44 22 L52 32 L48 42 L38 38 L36 48 L28 48 L26 38 L16 42 L12 32 L20 22 L12 16 L16 8 L26 12 Z"/>
  <circle fill="#2D1810" cx="32" cy="25" r="9"/>
  <ellipse fill="url(#drip3a)" cx="18" cy="50" rx="2" ry="4"/>
  <ellipse fill="url(#drip3a)" cx="23" cy="35" rx="2" ry="4"/>
  <ellipse fill="url(#drip3a)" cx="30" cy="48" rx="2" ry="4"/>
  <ellipse fill="url(#drip3a)" cx="42" cy="42" rx="1.5" ry="2.5"/>
  <ellipse fill="url(#drip3a)" cx="40" cy="50" rx="1.5" ry="2.5"/>
  <ellipse fill="url(#drip3a)" cx="50" cy="36" rx="2" ry="3"/>
</svg>
